<svg width="18" height="14" viewBox="0 0 18 14" fill="none" xmlns="http://www.w3.org/2000/svg">
<g clip-path="url(#clip0_3420:2115)">
<path d="M16.4745 2.31311H1.15656C0.514025 2.31311 0 1.79052 0 1.15656C0 0.522592 0.514025 0 1.15656 0H16.4745C17.117 0 17.631 0.514025 17.631 1.15656C17.631 1.79909 17.117 2.31311 16.4745 2.31311Z" fill="#5C5C5C"/>
<path d="M10.9059 7.88245H1.15656C0.514025 7.88245 0 7.35985 0 6.72589C0 6.09193 0.514025 5.56934 1.15656 5.56934H10.9059C11.5484 5.56934 12.0624 6.08336 12.0624 6.72589C12.0624 7.36842 11.5484 7.88245 10.9059 7.88245Z" fill="#5C5C5C"/>
<path d="M5.33729 13.4508H1.15656C0.514025 13.4508 0 12.9282 0 12.2943C0 11.6603 0.514025 11.1377 1.15656 11.1377H5.33729C5.97982 11.1377 6.49384 11.6517 6.49384 12.2943C6.49384 12.9368 5.97982 13.4508 5.33729 13.4508Z" fill="#5C5C5C"/>
</g>
<defs>
<clipPath id="clip0_3420:2115">
<rect width="17.631" height="13.4503" fill="white"/>
</clipPath>
</defs>
</svg>
